<?xml version="1.0" encoding="UTF-8"?>
<svg version="1.1" xmlns="http://www.w3.org/2000/svg" width="679" height="964">
<path d="M0 0 C224.07 0 448.14 0 679 0 C679 318.12 679 636.24 679 964 C454.93 964 230.86 964 0 964 C0 645.88 0 327.76 0 0 Z " fill="#FEFEFE" transform="translate(0,0)"/>
<path d="M0 0 C0.78373993 -0.00067474 1.56747986 -0.00134949 2.37496948 -0.00204468 C78.4155165 0.10090395 152.99117393 27.76460275 209.9375 78.25 C210.89398437 79.095625 211.85046875 79.94125 212.8359375 80.8125 C225.03876489 91.80485926 236.87329553 103.24423576 246.9375 116.25 C247.78946592 117.30256639 248.64375585 118.35325467 249.5 119.40234375 C263.82767558 137.0805149 276.2275091 156.6648193 285.9375 177.25 C286.70707031 178.87035156 286.70707031 178.87035156 287.4921875 180.5234375 C317.91801853 245.4621515 325.86075252 317.35518297 309.9375 387.25 C309.71723145 388.22195313 309.49696289 389.19390625 309.27001953 390.1953125 C298.11636598 438.27671226 274.59899571 487.7306834 240.31640625 523.73046875 C238.3919955 525.76863777 236.55774378 527.83755426 234.73046875 529.9609375 C224.53512432 541.66457426 213.3115107 552.86152451 200.9375 562.25 C199.97457031 563.01828125 199.01164063 563.7865625 198.01953125 564.578125 C162.61500299 592.71517278 121.4521915 611.60892425 77.9375 623.25 C77.17421387 623.45463867 76.41092773 623.65927734 75.62451172 623.87011719 C66.79648984 626.19104242 57.86645 627.88047494 48.875 629.4375 C47.93011719 629.60467529 46.98523438 629.77185059 46.01171875 629.9440918 C31.35891346 632.37246398 16.50440571 632.4895322 1.6875 632.5 C0.81721161 632.50067474 -0.05307678 632.50134949 -0.94973755 632.50204468 C-31.3108217 632.46496276 -61.01788053 628.22788476 -90.0625 619.25 C-90.8654248 619.00556152 -91.66834961 618.76112305 -92.49560547 618.50927734 C-122.038557 609.42132986 -150.68177425 595.93576212 -176.0625 578.25 C-176.80048828 577.73969238 -177.53847656 577.22938477 -178.29882812 576.70361328 C-188.73673788 569.44869249 -198.62950271 561.76900913 -208.0625 553.25 C-208.66126953 552.71294434 -209.26003906 552.17588867 -209.87695312 551.62255859 C-222.96517893 539.83145716 -235.37330575 527.27956745 -246.0625 513.25 C-246.825625 512.29351563 -247.58875 511.33703125 -248.375 510.3515625 C-270.43405508 482.5869025 -286.33736406 450.56511349 -298.0625 417.25 C-298.48740723 416.0731665 -298.48740723 416.0731665 -298.92089844 414.87255859 C-304.68005546 398.80173414 -307.92281434 381.99289705 -311.0625 365.25 C-311.26037109 364.20730957 -311.45824219 363.16461914 -311.66210938 362.09033203 C-317.09760241 331.84629083 -316.42590142 297.44552769 -311.0625 267.25 C-310.81306641 265.72052734 -310.81306641 265.72052734 -310.55859375 264.16015625 C-302.43277865 214.50239732 -282.20716789 167.49662433 -252.0625 127.25 C-251.47339844 126.45980469 -250.88429687 125.66960937 -250.27734375 124.85546875 C-237.47455914 108.05748895 -223.12181461 91.98071399 -207.0625 78.25 C-206.1034375 77.41339844 -205.144375 76.57679688 -204.15625 75.71484375 C-196.45771958 69.0434982 -188.45536851 63.016389 -180.0625 57.25 C-179.47243164 56.8389502 -178.88236328 56.42790039 -178.27441406 56.00439453 C-137.98531811 27.98147907 -91.30455942 10.7513199 -43 3.125 C-41.92306885 2.95395752 -40.8461377 2.78291504 -39.73657227 2.60668945 C-26.51025601 0.58928633 -13.35944844 0.01046715 0 0 Z " fill="#FE3300" transform="translate(347.0625,126.75)"/>
<path d="M0 0 C0.74093399 -0.00095673 1.48186798 -0.00191345 2.24525452 -0.00289917 C3.81120895 -0.00357916 5.37716623 -0.00173746 6.94311523 0.00244141 C9.33518847 0.00778465 11.72707329 0.00249426 14.11914062 -0.00390625 C15.6419275 -0.00324529 17.16471425 -0.00196375 18.6875 0 C19.75797829 -0.00303635 19.75797829 -0.00303635 20.8500824 -0.00613403 C24.21086523 0.00966052 27.17912 0.2310874 30.41015625 1.1328125 C31.96388387 1.24225619 33.52092136 1.30962894 35.078125 1.34375 C36.41907227 1.38628906 36.41907227 1.38628906 37.78710938 1.4296875 C39.64108835 1.4812227 41.49528038 1.52565031 43.34960938 1.5625 C49.51057211 1.77418662 54.68228243 2.84588824 60.41015625 5.1328125 C57.09562712 6.19328758 54.58879258 6.06056076 51.16015625 5.57421875 C25.71105222 2.25694555 -0.00300111 2.03798328 -25.58984375 4.1328125 C-22.84424305 1.3872118 -20.98090073 1.77091693 -17.15234375 1.5703125 C-11.28322586 1.24898649 -5.90094044 -0.01669032 0 0 Z " fill="#FFEDE1" transform="translate(337.58984375,124.8671875)"/>
<path d="M0 0 C0.33 0 0.66 0 1 0 C2.18197684 6.51963417 2.14810559 12.95045123 2.125 19.5625 C2.12886719 20.67302734 2.13273438 21.78355469 2.13671875 22.92773438 C2.13542969 24.00474609 2.13414062 25.08175781 2.1328125 26.19140625 C2.13168457 27.16279541 2.13055664 28.13418457 2.12939453 29.13500977 C1.99280327 32.15934636 1.52029354 35.02002316 1 38 C0.8887923 39.42380271 0.80426784 40.85009289 0.75390625 42.27734375 C0.72103516 43.03853516 0.68816406 43.79972656 0.65429688 44.58398438 C0.59325685 46.14894684 0.53594543 47.71405932 0.48242188 49.27929688 C0.26354105 54.16488218 -0.47068831 58.35014948 -2 63 C-2.33 63 -2.66 63 -3 63 C-2.85567373 60.29157934 -2.70954564 57.5832734 -2.5625 54.875 C-2.52318359 54.13378906 -2.48386719 53.39257812 -2.44335938 52.62890625 C-2.18411486 47.88273747 -1.86148961 43.1457804 -1.5 38.40625 C-0.92550653 30.48349692 -0.66642246 22.56347021 -0.4375 14.625 C-0.39414145 13.19530455 -0.35052285 11.76561697 -0.30664062 10.3359375 C-0.20144498 6.89070994 -0.09971307 3.44539113 0 0 Z " fill="#FFF3EB" transform="translate(665,425)"/>
<path d="M0 0 C1.2375 -0.020625 2.475 -0.04125 3.75 -0.0625 C4.44609375 -0.07410156 5.1421875 -0.08570313 5.859375 -0.09765625 C8 0 8 0 9.77734375 0.4765625 C13.73140679 1.40774782 17.84282416 1.3616721 21.89257812 1.51757812 C26.54996365 1.75110834 30.55877039 2.56603436 35 4 C35 4.33 35 4.66 35 5 C28.09507877 5.15644518 21.52185633 4.5835611 14.6875 3.625 C13.71232422 3.49867188 12.73714844 3.37234375 11.73242188 3.2421875 C10.79333984 3.11328125 9.85425781 2.984375 8.88671875 2.8515625 C7.62154419 2.67874756 7.62154419 2.67874756 6.33081055 2.50244141 C3.95066811 1.98936577 2.1179108 1.18329608 0 0 Z " fill="#E5522E" transform="translate(290,753)"/>
<path d="M0 0 C3.64567713 -0.08816905 7.29107474 -0.14077948 10.9375 -0.1875 C12.46987305 -0.22520508 12.46987305 -0.22520508 14.03320312 -0.26367188 C20.59819504 -0.32659512 25.9339085 0.4487325 32 3 C28.34767376 4.22658596 25.28095053 3.87283529 21.484375 3.44140625 C20.23398437 3.30283203 18.98359375 3.16425781 17.6953125 3.02148438 C16.39335937 2.87001953 15.09140625 2.71855469 13.75 2.5625 C12.4193439 2.41276072 11.08861521 2.26366503 9.7578125 2.11523438 C6.50443806 1.74981913 3.25195191 1.37783197 0 1 C0 0.67 0 0.34 0 0 Z " fill="#FED7C8" transform="translate(366,127)"/>
<path d="M0 0 C0.33 0 0.66 0 1 0 C1.05843491 4.02077152 1.0937424 8.04143259 1.125 12.0625 C1.14175781 13.19623047 1.15851562 14.32996094 1.17578125 15.49804688 C1.21019727 21.40039384 1.04944811 26.44067027 -1 32 C-1.33 32 -1.66 32 -2 32 C-1.43114063 21.32480925 -0.80552744 10.66038445 0 0 Z " fill="#FDCAB7" transform="translate(664,456)"/>
<path d="M0 0 C1.4606285 2.64738916 2 3.89448334 2 7 C1.34 7 0.68 7 0 7 C0.02320313 7.78503906 0.04640625 8.57007813 0.0703125 9.37890625 C0.17284781 15.34792603 0.04580539 20.37403518 -2 26 C-2.66 26 -3.32 26 -4 26 C-3.20376222 17.24138438 -1.57802387 8.64439492 0 0 Z " fill="#FED9CA" transform="translate(661,488)"/>
<path d="M0 0 C-1.46458007 3.86116565 -3.39605668 5.11222017 -7 7 C-8.0209375 7.61875 -8.0209375 7.61875 -9.0625 8.25 C-11.46130339 9.17856905 -12.5831079 8.70346132 -15 8 C-12.8782637 6.66121428 -10.75294812 5.32884524 -8.625 4 C-8.02171875 3.6184375 -7.4184375 3.236875 -6.796875 2.84375 C-2.2265625 0 -2.2265625 0 0 0 Z " fill="#FEE4DB" transform="translate(522,708)"/>
<path d="M0 0 C2.97 0 5.94 0 9 0 C5.40153636 1.79923182 2.50802964 2.72891624 -1.375 3.625 C-2.47585938 3.88539063 -3.57671875 4.14578125 -4.7109375 4.4140625 C-7.88802785 4.98005247 -10.78152858 5.10695826 -14 5 C-14 4.67 -14 4.34 -14 4 C-12.35 4 -10.7 4 -9 4 C-9 3.34 -9 2.68 -9 2 C-6.03 2 -3.06 2 0 2 C0 1.34 0 0.68 0 0 Z " fill="#E6471E" transform="translate(416,749)"/>
<path d="M0 0 C6.875 3.75 6.875 3.75 8 6 C6.1875 7.5625 6.1875 7.5625 4 9 C3.01 8.67 2.02 8.34 1 8 C0.67 5.36 0.34 2.72 0 0 Z " fill="#F23D12" transform="translate(536,189)"/>
<path d="M0 0 C1.11635408 3.40528151 0.91564847 5.98726333 0.3125 9.5 C0.09013672 10.90765625 0.09013672 10.90765625 -0.13671875 12.34375 C-1.14935323 15.45954839 -2.54655838 16.88134573 -5 19 C-4.35561067 16.39546825 -3.7095496 13.7913709 -3.0625 11.1875 C-2.88009766 10.44951172 -2.69769531 9.71152344 -2.50976562 8.95117188 C-1.7577385 5.92939016 -0.98514427 2.95543282 0 0 Z " fill="#FED7C8" transform="translate(654,523)"/>
<path d="M0 0 C-3.0333779 2.02225194 -5.61344489 2.99347524 -9.0625 4.125 C-10.12597656 4.47820312 -11.18945312 4.83140625 -12.28515625 5.1953125 C-15 6 -15 6 -17 6 C-17 5.34 -17 4.68 -17 4 C-11.15439723 1.36536213 -6.45512034 -0.56131481 0 0 Z " fill="#FED5C5" transform="translate(255,141)"/>
<path d="M0 0 C-1.11328125 1.48828125 -1.11328125 1.48828125 -3 3 C-5.91796875 3.29296875 -5.91796875 3.29296875 -9.1875 3.1875 C-10.27417969 3.16042969 -11.36085938 3.13335938 -12.48046875 3.10546875 C-13.31191406 3.07066406 -14.14335937 3.03585937 -15 3 C-5.21459227 -2.08583691 -5.21459227 -2.08583691 0 0 Z " fill="#FDD9CD" transform="translate(440,747)"/>
<path d="M0 0 C0.6875 1.8125 0.6875 1.8125 1 4 C-0.1875 5.5 -0.1875 5.5 -2 7 C-4.87932155 9.71886972 -4.87932155 9.71886972 -7 13 C-7.66 12.67 -8.32 12.34 -9 12 C-7.68858144 10.18671738 -6.37583526 8.37439486 -5.0625 6.5625 C-3.96615234 5.04849609 -3.96615234 5.04849609 -2.84765625 3.50390625 C-1 1 -1 1 0 0 Z " fill="#E94C25" transform="translate(102,245)"/>
<path d="M0 0 C6.83981276 0.51621228 12.63876684 2.48590969 19 5 C19 5.33 19 5.66 19 6 C12.3227105 5.39297368 6.29872004 3.22368606 0 1 C0 0.67 0 0.34 0 0 Z " fill="#E34C27" transform="translate(236,738)"/>
<path d="M0 0 C0.33 0.99 0.66 1.98 1 3 C-0.40445835 5.2636564 -2.1967913 7.0208685 -4 9 C-4.99 8.67 -5.98 8.34 -7 8 C-4.69 5.36 -2.38 2.72 0 0 Z " fill="#ED4C23" transform="translate(120,224)"/>
<path d="M0 0 C3.29078593 2.79716804 5.06305458 6.19528578 7 10 C6.67 10.66 6.34 11.32 6 12 C5.34 11.67 4.68 11.34 4 11 C4 10.01 4 9.02 4 8 C3.34 8 2.68 8 2 8 C1.34 5.36 0.68 2.72 0 0 Z " fill="#E84A25" transform="translate(617,277)"/>
<path d="M0 0 C0.33 0.66 0.66 1.32 1 2 C-0.32 3.65 -1.64 5.3 -3 7 C-4.32 6.67 -5.64 6.34 -7 6 C-4.69 4.02 -2.38 2.04 0 0 Z " fill="#EE4F26" transform="translate(134,211)"/>
<path d="M0 0 C0.33 0.99 0.66 1.98 1 3 C-0.43359375 5.04296875 -0.43359375 5.04296875 -2.4375 7.1875 C-3.09621094 7.90292969 -3.75492188 8.61835937 -4.43359375 9.35546875 C-4.95050781 9.89816406 -5.46742188 10.44085937 -6 11 C-6.66 10.67 -7.32 10.34 -8 10 C-5.36 6.7 -2.72 3.4 0 0 Z " fill="#FFE2D5" transform="translate(601,633)"/>
<path d="M0 0 C2.125 0.9375 2.125 0.9375 4 2 C2.71086513 2.67154933 1.41859796 3.33708859 0.125 4 C-0.59429687 4.37125 -1.31359375 4.7425 -2.0546875 5.125 C-4 6 -4 6 -6 6 C-5.67 5.01 -5.34 4.02 -5 3 C-4.01 3 -3.02 3 -2 3 C-2 2.34 -2 1.68 -2 1 C-1.34 0.67 -0.68 0.34 0 0 Z " fill="#FED1C3" transform="translate(210,156)"/>
<path d="M0 0 C0.66 0 1.32 0 2 0 C3.4606285 2.64738916 4 3.89448334 4 7 C4.99 7.33 5.98 7.66 7 8 C6.01 9.485 6.01 9.485 5 11 C4.16151196 9.54462432 3.32936066 8.08559627 2.5 6.625 C1.80390625 5.40683594 1.80390625 5.40683594 1.09375 4.1640625 C0 2 0 2 0 0 Z " fill="#E7461F" transform="translate(67,585)"/>
<path d="M0 0 C0.33 0 0.66 0 1 0 C1.2358396 5.77807024 0.86783046 10.51324804 -1 16 C-1.33 16 -1.66 16 -2 16 C-2.09765625 9.84765625 -2.09765625 9.84765625 -2 8 C-1.67 7.67 -1.34 7.34 -1 7 C-0.63239269 4.67182036 -0.29758419 2.3381615 0 0 Z " fill="#FDE5D8" transform="translate(664,472)"/>
<path d="M0 0 C2.2344598 4.03292745 2.54496743 7.44967434 3 12 C2.34 12 1.68 12 1 12 C0.03929566 9.11788698 -0.10581883 7.30149956 -0.0625 4.3125 C-0.05347656 3.50425781 -0.04445313 2.69601562 -0.03515625 1.86328125 C-0.02355469 1.24839844 -0.01195312 0.63351562 0 0 Z " fill="#E8532E" transform="translate(657,376)"/>
<path d="M0 0 C0.95465783 2.16967689 1.14401212 3.56328793 0.3984375 5.82421875 C-0.35870385 7.5684743 -1.17609198 9.28627131 -2 11 C-2.66 11 -3.32 11 -4 11 C-3.52269162 9.5410574 -3.04308958 8.08286504 -2.5625 6.625 C-2.29566406 5.81289063 -2.02882812 5.00078125 -1.75390625 4.1640625 C-1 2 -1 2 0 0 Z " fill="#E64A20" transform="translate(62,309)"/>
<path d="M0 0 C0.66 0.33 1.32 0.66 2 1 C0.875 2.9375 0.875 2.9375 -1 5 C-4.1875 5.75 -4.1875 5.75 -7 6 C-4.74259377 3.66475218 -2.7194239 1.81294927 0 0 Z " fill="#FEE4D7" transform="translate(529,702)"/>
<path d="M0 0 C0.33 0 0.66 0 1 0 C1.3636198 4.24223102 0.5393228 6.58168085 -2 10 C-2.66 10 -3.32 10 -4 10 C-2.8905928 6.51329166 -1.73662334 3.22515763 0 0 Z " fill="#FFE4D5" transform="translate(636,574)"/>
<path d="M0 0 C0.6875 1.75 0.6875 1.75 1 4 C-0.3125 6.25 -0.3125 6.25 -2 8 C-2.66 8 -3.32 8 -4 8 C-2.87548273 5.0280615 -1.77706209 2.66559313 0 0 Z " fill="#E9431A" transform="translate(84,270)"/>
<path d="M0 0 C0.66 0.66 1.32 1.32 2 2 C1.67 2.66 1.34 3.32 1 4 C1.99 4.33 2.98 4.66 4 5 C3.34 5.66 2.68 6.32 2 7 C0.35 5.02 -1.3 3.04 -3 1 C-2.01 0.67 -1.02 0.34 0 0 Z " fill="#EC4B24" transform="translate(129,666)"/>
<path d="M0 0 C0.33 0 0.66 0 1 0 C1.25 6.625 1.25 6.625 -1 10 C-1.66 10 -2.32 10 -3 10 C-2.01 6.7 -1.02 3.4 0 0 Z " fill="#FEDCCC" transform="translate(648,543)"/>
<path d="M0 0 C0 0.99 0 1.98 0 3 C-3 5 -3 5 -5.1875 4.625 C-5.785625 4.41875 -6.38375 4.2125 -7 4 C-2.25 0 -2.25 0 0 0 Z " fill="#FEE0D5" transform="translate(539,696)"/>
<path d="M0 0 C2.64752004 2.57784846 4.94432065 4.91648098 7 8 C5.68 8 4.36 8 3 8 C0 2.25 0 2.25 0 0 Z " fill="#FDDACA" transform="translate(98,636)"/>
</svg>
